<svg xmlns="http://www.w3.org/2000/svg" width="32" height="32" viewBox="0 0 32 32">
    <g fill="none" fill-rule="evenodd">
        <g stroke="#B6282D" stroke-linecap="round" stroke-linejoin="round" stroke-width="1.558">
            <path d="M5.692 16.913c2.125 5.262 8.114 7.804 13.376 5.678a10.243 10.243 0 003.403-2.245A10.278 10.278 0 0024.668 9.03" transform="translate(1 3)"/>
            <path d="M6.737 18.92c-.246.917-1.172 1.466-2.068 1.226-.896-.24-1.423-1.178-1.178-2.095.246-.917 1.172-1.466 2.068-1.226M25.03 9.396c.46-.83 1.49-1.139 2.302-.69.812.45 1.096 1.488.636 2.319-.46.83-1.491 1.139-2.303.689M16.826 15.847c2.134-1.185 3.54-2.934 3.658-3.732.895 2.05 1.5 4.918-2.357 6.778-3.856 1.86-5.864-.404-6.922-2.197.654.432 3.487.337 5.621-.849zM6.973 10.147c2.092 1.492 5.462 1.492 8.022.414 2.493-1.05 4.849-2.991 5.622-4.576M20.47 6.878a4.367 4.367 0 002.083 1.85c.662.28 1.402.394 2.163.3M5.653 16.886a9.814 9.814 0 001.869-5.775" transform="translate(1 3)"/>
            <path d="M25.788 8.192A10.625 10.625 0 0015.57.526 10.63 10.63 0 006.09 6.32M6.09 6.321c-.635 0-2.117.771-2.741 1.896-1.695 3.058-.606 6.901 2.433 8.586" transform="translate(1 3)"/>
        </g>
    </g>
</svg>
