<svg xmlns="http://www.w3.org/2000/svg" width="32" height="32" viewBox="0 0 32 32">
    <g fill="none" fill-rule="evenodd">
        <g>
            <path fill="#000" d="M15.443 13.999L14.571 16.675 13.69 13.999 12.551 13.999 14.147 18.329 14.995 18.329 16.582 13.999zM17.065 18.33h1.08V14h-1.08v4.33zm.54-4.871c-.374 0-.68-.307-.68-.681 0-.374.306-.674.68-.674.374 0 .673.3.673.674 0 .374-.299.68-.673.68zM20.814 14.922c-.648 0-.731.532-.731 1.238s.083 1.247.73 1.247c.649 0 .74-.54.74-1.247 0-.706-.091-1.238-.74-1.238zm.764 3.407v-.407c-.299.332-.614.457-1.072.457-.423 0-.822-.15-1.063-.39-.433-.433-.44-1.18-.44-1.829 0-.648.007-1.388.44-1.82.24-.24.631-.39 1.055-.39.44 0 .773.116 1.055.431v-1.969h1.081v5.917h-1.056zM26.084 15.296c-.117-.258-.358-.449-.723-.449-.366 0-.607.191-.723.449-.067.158-.092.274-.1.465h1.646c-.009-.191-.034-.307-.1-.465zM24.538 16.5c0 .557.34.964.947.964.474 0 .707-.133.981-.407l.657.64c-.44.44-.865.681-1.646.681-1.022 0-2.003-.466-2.003-2.219 0-1.413.765-2.21 1.887-2.21 1.205 0 1.887.88 1.887 2.069v.482h-2.71zM30.24 15.113c-.124-.125-.29-.191-.506-.191-.216 0-.374.066-.499.19-.224.225-.25.6-.25 1.048 0 .449.026.83.25 1.055.125.125.283.192.499.192.216 0 .382-.067.507-.192.224-.224.249-.606.249-1.055 0-.449-.025-.823-.25-1.047m.84 2.734c-.266.283-.706.532-1.346.532-.64 0-1.072-.25-1.338-.532-.39-.407-.49-.898-.49-1.687 0-.781.1-1.272.49-1.679.266-.282.698-.532 1.338-.532.64 0 1.08.25 1.346.532.39.407.49.898.49 1.68 0 .788-.1 1.279-.49 1.686" transform="translate(0 6)"/>
            <path fill="#EE2124" d="M25.689 5.99c-.617-.616-1.363-.92-2.21-.92-.846 0-1.578.304-2.18.92-.617.62-.917 1.365-.917 2.227 0 .862.3 1.608.918 2.211.601.62 1.333.934 2.18.934.846 0 1.592-.315 2.209-.934.602-.603.904-1.35.904-2.211 0-.862-.302-1.608-.904-2.226M24.64 9.38c-.315.33-.702.487-1.161.487-.444 0-.832-.156-1.148-.487-.315-.331-.488-.72-.488-1.164 0-.473.173-.862.488-1.178.316-.33.704-.488 1.148-.474.459-.014.846.145 1.175.474.302.316.46.705.475 1.178-.016.445-.173.833-.489 1.164M3.843 3.535c-1.075-.015-1.965.359-2.71 1.134C.371 5.431 0 6.335 0 7.412 0 8.475.372 9.41 1.132 10.17c.746.747 1.636 1.121 2.71 1.121.862 0 1.651-.26 2.34-.791.673-.546 1.118-1.22 1.347-2.053H5.966c-.2.402-.487.731-.846.99-.401.246-.818.374-1.277.374-.66 0-1.218-.244-1.678-.704-.472-.474-.703-1.033-.689-1.695-.014-.66.217-1.221.689-1.694.46-.46 1.018-.704 1.678-.704.46 0 .876.129 1.277.388.359.244.645.588.846.99h1.563C7.3 5.56 6.855 4.87 6.181 4.34c-.688-.547-1.477-.82-2.338-.805M13.31 5.057c-1.004-.015-1.707.259-2.109.79-.257.33-.386.762-.43 1.307h1.493c.027-.258.115-.431.215-.545.157-.202.415-.304.79-.288.314-.016.558.043.73.143.17.087.243.259.258.503 0 .201-.115.36-.344.46l-1.149.186c-.53.072-.96.201-1.29.389-.559.33-.831.86-.816 1.624-.015.53.157.962.5 1.277.301.26.718.401 1.22.417.817-.016 1.463-.216 1.922-.618v.618h1.492V6.924c0-.718-.26-1.22-.746-1.479-.517-.273-1.09-.403-1.735-.388zm.632 3.375l.286-.157v.603c0 .516-.144.875-.416 1.076-.287.201-.588.302-.933.302-.214 0-.386-.058-.53-.171-.142-.13-.215-.317-.215-.59 0-.3.116-.517.359-.675.143-.087.386-.158.702-.201l.747-.187zM8.289 11.32L9.781 11.32 9.781 3.535 8.289 3.535zM19.277 5.273c-.401.158-.76.43-1.062.846v-.761l-1.42-.013v5.975h1.478V8.462c0-.49.058-.833.187-1.05.1-.228.286-.415.516-.573.258-.173.53-.26.818-.26l.458.03-.013-1.524-.387.029-.575.159zM26.85 5.301L30.452 1.696 29.504.749 25.904 4.353zM22.992 3.865L24.326 3.865 24.326 0 22.992 0zM27.511 8.131L31.455 8.131 31.455 6.795 27.511 6.795z" transform="translate(0 6)"/>
        </g>
    </g>
</svg>
