<svg xmlns="http://www.w3.org/2000/svg" width="24" height="24" viewBox="0 0 24 24">
    <g fill="#DA272C" fill-rule="nonzero">
        <path d="M12.03 10.794l.004.005.532-.53-.537.525zm1.03 2.544c0 .997-.34 1.835-1.025 2.52-.71.713-1.55 1.068-2.515 1.068-.958 0-1.775-.35-2.466-1.061C6.343 15.171 6 14.339 6 13.338c0-1 .343-1.836 1.046-2.538.69-.708 1.503-1.05 2.474-1.05.912 0 1.7.3 2.37.91l.142.136c.69.706 1.029 1.546 1.029 2.542zm.037-3.598c-.983-.986-2.2-1.49-3.577-1.49-1.375 0-2.576.505-3.541 1.496-.98.977-1.479 2.195-1.479 3.592 0 1.4.503 2.621 1.493 3.587.957.984 2.16 1.501 3.527 1.501 1.368 0 2.588-.516 3.577-1.509.968-.968 1.464-2.187 1.464-3.58 0-1.387-.493-2.604-1.46-3.592l-.535.525.53-.53zM9.17 3v3.75a.75.75 0 0 0 1.5 0V3a.75.75 0 0 0-1.5 0zM20.044 12.375h-3.75a.75.75 0 1 0 0 1.5h3.75a.75.75 0 0 0 0-1.5zM16.39 5.527l-2.57 2.332a.75.75 0 0 0 1.009 1.11l2.57-2.331a.75.75 0 0 0-1.009-1.111z"/>
    </g>
</svg>
