<svg xmlns="http://www.w3.org/2000/svg" width="16" height="16" viewBox="0 0 16 16">
    <g fill="none" fill-rule="evenodd">
        <path fill="#1877F2" d="M16 8a8 8 0 1 0-9.25 7.903v-5.59H4.719V8H6.75V6.237c0-2.005 1.194-3.112 3.022-3.112.875 0 1.79.156 1.79.156V5.25h-1.008c-.994 0-1.304.617-1.304 1.25V8h2.219l-.355 2.313H9.25v5.59A8.002 8.002 0 0 0 16 8"/>
        <path fill="#FFF" d="M11.114 10.313L11.47 8H9.25V6.5c0-.633.31-1.25 1.304-1.25h1.008V3.281s-.915-.156-1.79-.156c-1.828 0-3.022 1.107-3.022 3.112V8H4.719v2.313H6.75v5.59a8.058 8.058 0 0 0 2.5 0v-5.59h1.864z"/>
    </g>
</svg>
