<svg xmlns="http://www.w3.org/2000/svg" width="32" height="32" viewBox="0 0 32 32">
    <path fill="#63B847" fill-rule="evenodd" d="M27 12a3 3 0 0 1 3 3v11a3 3 0 0 1-3 3H5a3 3 0 0 1-3-3V15a3 3 0 0 1 3-3h22zm-12 6.838H3.5V25.5a2 2 0 0 0 1.85 1.995l.15.005H15v-8.662zm13.5 0h-12V27.5h10a2 2 0 0 0 1.995-1.85l.005-.15v-6.662zm-16 2.912a.75.75 0 1 1 0 1.5H7a.75.75 0 1 1 0-1.5h5.5zm14-8.25h-10v3.838h12V15.5a2 2 0 0 0-2-2zm-11.5 0H5.5a2 2 0 0 0-1.995 1.85l-.005.15v1.838H15V13.5zM10.5 2a4.5 4.5 0 0 1 4.495 4.288L15 6.5v3.511c0 .299.006.482-.237.72-.244.24-.452.265-.77.269-1.555.02-2.716 0-3.493 0a4.5 4.5 0 0 1 0-9zm10 2a3.5 3.5 0 0 1 .192 6.995L20.5 11h-2.007c-.445 0-.735-.005-1.11-.375-.377-.37-.383-.662-.383-1.095V7.5A3.5 3.5 0 0 1 20.5 4zm-10-.5a3 3 0 1 0 0 6h2.502c.16 0 .271.007.394-.113.082-.08.1-.149.104-.233V6.5a3 3 0 0 0-3-3zm10 2a2 2 0 0 0-2 2V9c0 .255.048.32.091.364l.019.018c.047.047.116.118.401.118H20.5a2 2 0 1 0 0-4z"/>
</svg>
