<svg xmlns="http://www.w3.org/2000/svg" width="72" height="78" viewBox="0 0 72 78">
    <g fill="none" fill-rule="evenodd" transform="translate(3 3)">
        <g>
            <path fill="#49A9BC" fill-rule="nonzero" stroke="#49A9BC" stroke-width="1.871" d="M30.743 56.646H1.827c-.799 0-1.446-.661-1.446-1.476s.647-1.476 1.446-1.476h27.47V3.514H1.827C1.028 3.513.38 2.851.38 2.036c0-.815.647-1.475 1.446-1.475h28.916c.798 0 1.445.66 1.445 1.476V55.17c0 .815-.647 1.476-1.445 1.476z" transform="translate(35.482 7.017)"/>
            <path fill="#EBEBEB" d="M8 5H14V53H8z" transform="translate(35.482 7.017)"/>
            <path fill="#49A9BC" fill-rule="nonzero" stroke="#49A9BC" d="M31.13 14.342H3.387c-.766 0-1.387-.672-1.387-1.5s.621-1.5 1.387-1.5H31.13c.766 0 1.388.672 1.388 1.5s-.621 1.5-1.388 1.5z" transform="translate(35.482 7.017)"/>
        </g>
        <ellipse cx="12.955" cy="28.049" fill="#49A9BC" rx="4.235" ry="4.258"/>
        <ellipse cx="29.148" cy="28.049" fill="#49A9BC" rx="4.235" ry="4.258"/>
        <path fill="#49A9BC" fill-rule="nonzero" stroke="#49A9BC" stroke-width="1.871" d="M30.388 42.821c-.15-.112-3.717-2.751-9.458-2.751-5.742 0-9.294 2.64-9.443 2.752a.694.694 0 00-.132.978.71.71 0 00.987.134c.033-.025 3.346-2.467 8.588-2.467 5.243 0 8.572 2.443 8.604 2.467a.706.706 0 00.988-.133.695.695 0 00-.134-.98z"/>
        <path fill="#EBEBEB" d="M34.982 2.147v57.485c-.404 1.517-1.56 2.275-3.467 2.275s-11.79-1.075-29.647-3.225v6.261l31.376 5.603 9.382 1.06.97-59.504V1.252l-8.614.895z"/>
        <path fill-rule="nonzero" stroke="#49A9BC" stroke-width="4.99" d="M42.152.349a1.503 1.503 0 00-1.294-.312L1.184 9.383A1.552 1.552 0 000 10.916v52.961c0 .769.55 1.422 1.294 1.54l39.674 6.23c.833.13 1.612-.453 1.74-1.303.012-.078.018-.157.018-.236V1.57a1.57 1.57 0 00-.574-1.221z"/>
    </g>
</svg>
