<svg xmlns="http://www.w3.org/2000/svg" xmlns:xlink="http://www.w3.org/1999/xlink" width="360" height="360" viewBox="0 0 360 360">
    <defs>
        <path id="a" d="M.752.393h220.469V168.2H.752z"/>
    </defs>
    <g fill="none" fill-rule="evenodd">
        <path fill="#DA272C" d="M360.221 0L360 119.356l2.777 78.137L360 197 155.106 341.065c-45.178 31.766-107.554 20.892-139.32-24.286A100 100 0 0 1 1.42 286.676l-2.88-10.104v-43.138c0-.208 0-.417.002-.626L0 0h360.221z"/>
        <g transform="translate(139)">
            <mask id="b" fill="#fff">
                <use xlink:href="#a"/>
            </mask>
            <path fill="#B6282D" fill-opacity=".8" d="M22.204 56.523a5.822 5.822 0 1 0 .001 11.643 5.822 5.822 0 0 0 0-11.643M132.04 24.674a3.075 3.075 0 0 0-4.347 0L72.865 79.502a3.076 3.076 0 0 0 4.348 4.348l54.827-54.827a3.074 3.074 0 0 0 0-4.349m140.354-45.653c-7.609-7.608-19.946-7.608-27.555 0l-52.159 52.16a5.567 5.567 0 0 1-7.873-7.873l31-31c3.804-3.806 3.804-9.974 0-13.779-3.805-3.805-9.974-3.805-13.778 0l-89.556 89.556a9.742 9.742 0 0 0 0 13.779c3.804 3.804 9.973 3.804 13.777 0l29.008-29.009a5.568 5.568 0 0 1 7.874 7.873l-45.74 45.74c-7.608 7.61-7.608 19.947.001 27.555 7.61 7.608 19.947 7.608 27.556 0L272.394 6.578c7.61-7.61 7.61-19.948 0-27.556m38.426 66.787a6.264 6.264 0 0 0-8.857 0l-111.699 111.7a6.262 6.262 0 1 0 8.857 8.857l111.7-111.7a6.264 6.264 0 0 0 0-8.857m-118.886 73.547a5.822 5.822 0 1 0 11.643-.002 5.822 5.822 0 0 0-11.643.002M156.848-71.121a6.418 6.418 0 0 0-9.074 0L33.344 43.309a6.415 6.415 0 0 0 0 9.074 6.415 6.415 0 0 0 9.073 0l114.431-114.43a6.419 6.419 0 0 0 0-9.075m-.459 80.347a2.387 2.387 0 0 0 3.377 0l14.5-14.5a2.388 2.388 0 0 0-3.376-3.376l-14.5 14.5a2.389 2.389 0 0 0 0 3.377m23.156-20.19a2.248 2.248 0 1 0-3.18-3.178 2.248 2.248 0 0 0 3.18 3.178M25.678 13.986L1.155 38.51A1.375 1.375 0 0 0 3.1 40.455L27.623 15.93a1.374 1.374 0 1 0-1.945-1.944m161.515-31.01l35.555-35.555a3.51 3.51 0 0 0 0-4.965 3.51 3.51 0 0 0-4.965 0L182.227-21.99a3.512 3.512 0 0 0 4.966 4.966" mask="url(#b)"/>
        </g>
    </g>
</svg>
