<svg xmlns="http://www.w3.org/2000/svg" xmlns:xlink="http://www.w3.org/1999/xlink" width="124" height="33" viewBox="0 0 124 33">
    <defs>
        <path id="a" d="M.046.265h99.303v32.462H.046z"/>
    </defs>
    <g fill="none" fill-rule="evenodd">
        <path fill="#FFF" d="M16.628 9.343l-6.055 12.584L4.485 9.343H0v23.272h4.55V19.05l4.485 8.824h3.076l4.452-8.824v13.564h4.55V9.343z"/>
        <g transform="translate(24.308 .008)">
            <mask id="b" fill="#fff">
                <use xlink:href="#a"/>
            </mask>
            <path fill="#FFF" d="M.602 32.607h4.255V15.579H.602v17.028zM2.73 13.454a2.694 2.694 0 0 1-2.684-2.68c0-1.47 1.21-2.648 2.684-2.648a2.639 2.639 0 0 1 2.651 2.648c0 1.47-1.178 2.68-2.651 2.68zM86.171 15.41l10.305-10.3-2.71-2.706-10.302 10.298zM75.133 11.307h3.816V.265h-3.816zM88.062 23.496h11.287V19.68H88.062zM82.846 17.382c-1.764-1.763-3.898-2.628-6.32-2.628-2.42 0-4.515.865-6.237 2.628-1.767 1.766-2.627 3.896-2.627 6.36 0 2.462.86 4.594 2.627 6.32 1.722 1.765 3.816 2.665 6.237 2.665 2.422 0 4.556-.9 6.32-2.666 1.724-1.725 2.586-3.857 2.586-6.32s-.862-4.593-2.586-6.359m-2.996 9.685c-.902.946-2.01 1.393-3.324 1.393-1.271 0-2.38-.447-3.28-1.393-.906-.945-1.399-2.054-1.399-3.326 0-1.352.493-2.463 1.398-3.364.901-.942 2.01-1.395 3.281-1.353 1.314-.042 2.422.411 3.363 1.353.864.901 1.315 2.012 1.358 3.364-.043 1.272-.494 2.381-1.397 3.326M20.344 10.365c-3.075-.04-5.624 1.026-7.756 3.24-2.174 2.176-3.24 4.76-3.24 7.84 0 3.034 1.066 5.706 3.24 7.878 2.132 2.133 4.68 3.202 7.756 3.202 2.464 0 4.722-.74 6.69-2.26 1.929-1.56 3.201-3.486 3.857-5.866H26.42a7.703 7.703 0 0 1-2.421 2.83c-1.15.7-2.34 1.069-3.654 1.069-1.886 0-3.486-.698-4.802-2.014-1.35-1.353-2.009-2.949-1.969-4.84-.04-1.886.618-3.488 1.969-4.84 1.316-1.314 2.916-2.012 4.802-2.012 1.314 0 2.504.368 3.654 1.108 1.027.699 1.847 1.682 2.42 2.831h4.473c-.656-2.38-1.928-4.351-3.858-5.866-1.967-1.561-4.225-2.34-6.689-2.3M47.43 14.715c-2.872-.044-4.883.739-6.032 2.256-.737.943-1.107 2.177-1.231 3.736h4.27c.079-.738.328-1.231.614-1.559.451-.577 1.19-.866 2.258-.823.902-.043 1.6.122 2.09.41.492.247.698.74.74 1.437 0 .573-.33 1.029-.985 1.315l-3.285.53c-1.517.208-2.746.573-3.693 1.111-1.599.943-2.377 2.46-2.336 4.64-.04 1.512.451 2.746 1.433 3.649.862.74 2.052 1.148 3.492 1.19 2.338-.042 4.182-.617 5.496-1.766v1.767h4.272v-12.56c0-2.052-.744-3.486-2.137-4.225-1.478-.78-3.118-1.152-4.965-1.108zm1.806 9.64l.82-.446v1.722c0 1.474-.411 2.5-1.189 3.075-.822.574-1.684.863-2.669.863-.614 0-1.107-.166-1.518-.491-.407-.372-.616-.904-.616-1.683 0-.861.332-1.478 1.027-1.93.411-.246 1.107-.451 2.012-.575l2.133-.534zM33.067 32.607h4.268V10.365h-4.268zM64.5 15.33c-1.146.452-2.17 1.232-3.037 2.42v-2.175l-4.061-.038v17.07h4.227v-8.165c0-1.398.165-2.38.535-2.998.285-.654.819-1.189 1.478-1.64.737-.493 1.516-.74 2.34-.74l1.31.084-.039-4.354-1.107.084-1.646.452z" mask="url(#b)"/>
        </g>
    </g>
</svg>
