<svg xmlns="http://www.w3.org/2000/svg" width="32" height="32" viewBox="0 0 32 32">
    <path fill="#000000" fill-rule="evenodd" d="M16 2c7.732 0 14 6.268 14 14s-6.268 14-14 14S2 23.732 2 16 8.268 2 16 2zM5.12 21.634l.024.047a12.25 12.25 0 0 0 10.293 6.556c-1.573-1.206-3.093-3.157-4.335-5.606-2.152.02-4.147-.311-5.983-.997zm16.862-1.617l-.046.022a25.524 25.524 0 0 1-3.857 1.463c-1.763.52-3.448.86-5.053 1.021 2.017 3.654 4.587 5.758 6.35 5.252 1.755-.503 2.818-3.62 2.606-7.758zm6.2-5.317l-.04.063c-1.046 1.696-2.539 3.14-4.468 4.33.234 2.708-.023 5.145-.712 6.988a12.236 12.236 0 0 0 5.22-11.381zM9.038 5.92l-.18.126A12.234 12.234 0 0 0 3.75 16c0 1.146.157 2.255.452 3.307 1.814.96 3.844 1.483 6.093 1.564-.385-.93-.73-1.914-1.024-2.942-1.332-4.645-1.33-9.078-.233-12.01zm3.585-1.695c-2.47.708-3.569 6.6-1.67 13.222a25.51 25.51 0 0 0 1.235 3.392c1.686-.114 3.484-.452 5.396-1.016 1.588-.468 2.995-1.027 4.222-1.676a25.488 25.488 0 0 0-.76-3.594C19.149 7.93 15.095 3.516 12.624 4.225zm3.94-.462l.143.112c2.43 1.938 4.717 5.64 6.023 10.196.3 1.046.532 2.082.7 3.092 2.025-1.408 3.397-3.148 4.133-5.22-1.615-4.603-5.901-7.95-11-8.18z"/>
</svg>
