<svg xmlns="http://www.w3.org/2000/svg" xmlns:xlink="http://www.w3.org/1999/xlink" width="16" height="16" viewBox="0 0 16 16">
    <defs>
        <path id="a" d="M8 0C3.493 0 0 3.298 0 7.753c0 2.33.956 4.343 2.513 5.734.13.117.209.28.215.455l.044 1.421a.641.641 0 0 0 .898.566l1.587-.699a.639.639 0 0 1 .427-.032A8.71 8.71 0 0 0 8 15.505c4.507 0 8-3.298 8-7.752C16 3.298 12.507 0 8 0z"/>
        <linearGradient id="b" x1="50%" x2="50%" y1="0%" y2="100%">
            <stop offset="0%" stop-color="#00B1FF"/>
            <stop offset="100%" stop-color="#0069FF"/>
        </linearGradient>
    </defs>
    <g fill="none" fill-rule="evenodd">
        <g transform="translate(0 .016)">
            <mask id="c" fill="#fff">
                <use xlink:href="#a"/>
            </mask>
            <path fill="url(#b)" d="M8 0C3.493 0 0 3.298 0 7.753c0 2.33.956 4.343 2.513 5.734.13.117.209.28.215.455l.044 1.421a.641.641 0 0 0 .898.566l1.587-.699a.639.639 0 0 1 .427-.032A8.71 8.71 0 0 0 8 15.505c4.507 0 8-3.298 8-7.752C16 3.298 12.507 0 8 0z" mask="url(#c)"/>
        </g>
        <path fill="#FFF" d="M3.197 10.036l2.35-3.724a1.202 1.202 0 0 1 1.735-.32l1.869 1.4a.48.48 0 0 0 .578-.001l2.524-1.914c.336-.256.777.148.55.505l-2.348 3.723a1.202 1.202 0 0 1-1.735.32L6.85 8.624a.48.48 0 0 0-.577.002L3.747 10.54c-.336.255-.777-.148-.55-.505"/>
    </g>
</svg>
