<svg xmlns="http://www.w3.org/2000/svg" width="32" height="32" viewBox="0 0 32 32">
    <g fill="#1D87FA" fill-rule="evenodd">
        <path d="M29.166 2c.536 0 .834.467.834 1.4v9.158c0 .525-.238.817-.834.817h-9.943L16.007 16V2.992C15.947 2.35 16.246 2 17.02 2zM28.5 3.358h-11v9.61l1.012-1.056a1.02 1.02 0 0 1 .606-.222H28.5V3.358zm-8 3.892a.75.75 0 1 1 0 1.5.75.75 0 0 1 0-1.5zm2.5 0a.75.75 0 1 1 0 1.5.75.75 0 0 1 0-1.5zm2.5 0a.75.75 0 1 1 0 1.5.75.75 0 0 1 0-1.5z"/>
        <path d="M5.04 7.417c1.314-1.309 2.796-.827 3.473-.185l3.288 3.265c.724.717.816 1.44.765 1.92-.124 1.175-1.2 1.9-1.322 1.979l-1.009.85c1.41 3.103 3.527 5.238 6.308 6.357l1.23-1.297c.815-.836 1.631-.978 2.178-.96 1.277.052 2.128 1.043 2.22 1.157l2.416 2.612c.765.65.942 1.408.942 1.917-.002 1.103-.817 1.83-.91 1.91l-2.446 2.5c-.098.1-.215.18-.344.233-.568.232-1.213.325-1.88.325-2.35 0-4.955-1.152-5.317-1.318C5.645 24.12 3.04 17.742 2.454 15.897c-1.333-4.203.684-6.551.77-6.648.032-.035.726-.751 1.815-1.832zm1.943.673l-.088.007c-.21.043-.282.14-.434.292-.998.995-1.636 1.658-1.64 1.662-.004.008-.518.417-.824 1.03-.413.823-.605 2.069-.15 3.73C4.89 18.624 8.804 24.077 14.92 27.2c1.397.678 4.235 1.408 5.818 1.278.172-.014.412-.025.562-.118.15-.093.295-.248.382-.347l2.164-2.447a.586.586 0 0 0 .161-.41c-.001-.105-.043-.329-.16-.422l-3.182-3.428c-.135-.157-.356-.375-.835-.375a.43.43 0 0 0-.077.008 1.492 1.492 0 0 0-.692.367l-1.59 1.686a.962.962 0 0 1-.979.263 4.382 4.382 0 0 1-.296-.117c-4.353-1.588-6.559-5.13-7.641-7.827-.156-.387-.117-.64.2-.906l1.91-1.666c.25-.175.362-.301.372-.415a.593.593 0 0 0-.149-.353L7.332 8.254c-.05-.042-.227-.2-.437-.157z"/>
    </g>
</svg>
