<svg xmlns="http://www.w3.org/2000/svg" width="32" height="32" viewBox="0 0 32 32">
    <path fill="#DA1B68" fill-rule="nonzero" d="M18.302 3.7a2.926 2.926 0 0 1 2.922 2.922v5.306h6.007A2.77 2.77 0 0 1 30 14.692c0 .73-2.01 9.131-2.65 10.696-.555 1.352-1.243 2.768-2.77 2.768H13.49c-.687 0-1.35-.213-1.9-.601-.38.456-.919.742-1.516.742h-5.99C2.936 28.297 2 27.238 2 25.937V15.49c0-1.302.935-2.36 2.085-2.36h5.989c.742 0 1.395.44 1.764 1.103l3.542-5.357V4.322c0-.343.279-.622.622-.622h2.3zm-.436 1.694h-.667v4.122c0 .12-.035.237-.1.338l-4.447 6.76-.494.717v4.785c0 .39-.284.838-.95.838-.666 0-1.006-.449-1.006-.838v-6.249c0-.524-.377-.95-.84-.95H4.68c-.463 0-.84.426-.84.95v10.07c0 .524.377.95.84.95h4.68c.464 0 .841-.426.841-.95v-1.508c0-.39.337-.724 1.006-.724.67 0 .95.335.95.724v.844c.095.747.583 1.108 1.332 1.108H23.86c1.093 0 1.33-.517 1.62-1.211.193-.463.65-1.927 1.37-4.393.977-3.518 1.465-5.365 1.465-5.54 0-.708-.053-1.462-1.466-1.462h-6.745a.622.622 0 0 1-.622-.622V7.07c0-.925-.692-1.677-1.617-1.677z"/>
</svg>
