<svg xmlns="http://www.w3.org/2000/svg" width="52" height="52" viewBox="0 0 52 52">
    <g fill="none" fill-rule="evenodd" stroke="#DA272C" stroke-width="1.5">
        <path d="M26 16.785C27.768 9.928 30.824 6.5 35.166 6.5c6.514 0 6.471 7.932 4.006 9.75-1.644 1.212-3.888 1.212-6.73 0 3.097-1.886 4.191-3.422 3.282-4.608-1.365-1.778-3.876 4.313-4.329 4.608-.301.197-2.1.375-5.395.535zM25.74 16.651C24.145 9.884 21.176 6.5 16.834 6.5c-6.514 0-6.3 7.403-3.835 9.221 1.644 1.212 4.16 1.389 7.546.529-3.384-2.315-4.621-4.065-3.711-5.251 1.364-1.778 3.39 5.251 3.39 5.251l5.516.401zM9.75 22.461h32.5v20.13a2.91 2.91 0 0 1-2.91 2.909H12.66a2.91 2.91 0 0 1-2.91-2.91V22.462zM26.325 22.461V45.5"/>
        <rect width="35.875" height="5.813" x="8.063" y="17" rx="2.906"/>
    </g>
</svg>
