<svg xmlns="http://www.w3.org/2000/svg" width="32" height="32" viewBox="0 0 32 32">
    <g fill="#B6282D" fill-rule="evenodd">
        <path d="M3.916 12.056L7.177 17l-3.298 7.936a.632.632 0 0 0 .037.604l1.725 2.671a.635.635 0 0 0 1.05.034l4.319-5.687 2.65 3.505-.504 2.182a.632.632 0 0 0 .08.478l.948 1.517a.632.632 0 0 0 1.056.026l1.93-2.891 3.489-.507a.63.63 0 0 0 .43-.995l-.981-1.372a.631.631 0 0 0-.373-.248l-2.175-.502-2.041-4.054 7.227-1.272a.631.631 0 0 0 .421-.958l-1.646-2.828a.632.632 0 0 0-.526-.296l-8.756-.547-2.897-5.097C8.465 7.296 7.368 7.045 6.69 6.89c-.696-.16-1.623-.041-2.155.325-.532.367-1.011 1.113-1.172 1.806-.157.677-.32 1.64.552 3.036zm1.695-3.4c.21-.086 1.358-.167 2.394 1.49l3.195 5.318a.634.634 0 0 0 .532.307l8.7.14.756 1.204-7.224 1.34a.634.634 0 0 0-.45.905l2.669 5.314a.63.63 0 0 0 .422.333l1.92.19.33.556-2.12.233c-.259 0-.343.143-.435.262l-1.168 1.833-.253-.537.547-1.791a.6.6 0 0 0-.107-.504l-3.732-4.796a.633.633 0 0 0-1.023.006l-4.249 5.917-.738-1.18 3.703-7.893a.632.632 0 0 0-.042-.613l-3.38-5.206C4.823 9.828 5.4 8.833 5.61 8.656zM25.176 26.227l-.181.105 2.363.661a.754.754 0 0 1 .522.942.773.773 0 0 1-.954.53l-4.177-1.17a.755.755 0 0 1-.522-.943l1.22-4.162a.777.777 0 0 1 .955-.53.755.755 0 0 1 .523.943l-.71 2.422.176-.117.785 1.319z"/>
        <path d="M6.549 5.644C9.353 3.214 12.504 2 16 2c5.617 0 9.929 3.489 11.825 6.729 1.346 2.3 2 4.679 2 7.274 0 4-1.565 7.459-4.697 10.379-.463.176-.816.028-1.06-.443-.245-.471-.181-.85.191-1.134 2.566-2.573 3.85-5.508 3.85-8.802 0-6.597-5.384-12.261-12.109-12.261-2.803 0-5.334.862-7.592 2.585a3.602 3.602 0 0 0-.89-.496c-.25-.087-.658-.187-.97-.187z"/>
    </g>
</svg>
