<svg xmlns="http://www.w3.org/2000/svg" width="72" height="72" fill="none" viewBox="0 0 72 72">
    <path fill="#B6282D" fill-rule="evenodd" d="M8.81 27.127c.011.012 7.338 11.123 7.338 11.123l-7.42 17.857c-.205.438-.174.95.083 1.36l3.881 6.009c.203.321.523.547.886.631.09.021.182.034.275.036.475.015.924-.208 1.202-.592l9.716-12.794 5.964 7.885-1.133 4.91c-.085.368-.021.754.179 1.074l2.133 3.413c.253.407.692.659 1.172.669.479.012.93-.217 1.204-.61l4.34-6.505 7.852-1.14c.495-.066.92-.386 1.117-.845.2-.459.143-.987-.148-1.393l-2.209-3.087c-.2-.282-.499-.48-.838-.558l-4.895-1.13-4.592-9.122 16.262-2.862c.463-.086.854-.396 1.043-.829.19-.43.154-.927-.096-1.327l-3.705-6.363c-.256-.407-.7-.657-1.183-.665L27.537 31.04l-6.518-11.466c-1.973-3.159-4.44-3.722-5.964-4.074-1.566-.36-3.653-.093-4.85.732-1.196.824-2.274 2.503-2.635 4.063-.354 1.524-.723 3.691 1.24 6.832zm3.814-7.65c.472-.195 3.056-.377 5.386 3.35l7.19 11.967c.253.422.707.682 1.198.692l19.575.313 1.7 2.71-16.255 3.014c-.44.083-.816.366-1.015.766-.2.402-.198.871.004 1.272l6.004 11.955c.19.379.537.653.95.749l4.319.427.744 1.252-4.77.525c-.583 0-.772.32-.98.588l-2.627 4.124-.57-1.207 1.232-4.03c.094-.406.005-.799-.242-1.134L26.07 46.018c-.27-.366-.696-.582-1.155-.578-.454.002-.88.222-1.148.592l-9.56 13.313-1.66-2.653 8.332-17.76c.21-.445.174-.968-.094-1.38L13.18 25.84c-2.325-3.728-1.03-5.966-.555-6.363zM56.645 59.01l-.406.236 5.316 1.49c.918.255 1.444 1.204 1.175 2.118-.133.458-.44.82-.83 1.036-.388.216-.858.284-1.317.154l-9.397-2.632c-.918-.256-1.445-1.206-1.176-2.12l2.748-9.365c.268-.916 1.228-1.448 2.146-1.19.918.256 1.444 1.205 1.176 2.12l-1.598 5.449.398-.264 1.765 2.968z" clip-rule="evenodd"/>
    <path fill="#B6282D" fill-rule="evenodd" d="M14.734 12.698C21.045 7.233 28.134 4.5 36 4.5c12.638 0 22.34 7.85 26.607 15.14 3.028 5.173 4.5 10.527 4.5 16.367 0 13.497-10.569 23.352-10.569 23.352s-1.561.593-2.387-.997c-.826-1.59.433-2.55.433-2.55s8.66-8.686 8.66-19.806C63.243 21.164 51.13 8.42 36 8.42c-6.307 0-12 1.938-17.081 5.816-.546-.435-1.44-.92-2.004-1.116-.563-.197-1.48-.422-2.18-.422z" clip-rule="evenodd"/>
</svg>
