<svg xmlns="http://www.w3.org/2000/svg" width="136" height="105" fill="none" viewBox="0 0 136 105">
    <path fill="#fff" fill-rule="evenodd" d="M44.652 30.082l44.303-3.918c6.11-.534 11.503 3.961 12.028 10.084l3.031 35.105c.525 6.124-3.987 11.462-10.096 11.996l-44.303 3.918c-6.11.534-11.503-3.961-12.028-10.084l-3.032-35.106c-.505-6.049 3.987-11.46 10.097-11.995z" clip-rule="evenodd"/>
    <path fill="#EBEBEB" fill-rule="evenodd" d="M90.305 25.885c5.508.182 10.138 4.486 10.599 10.071l3.031 35.103c.526 6.123-3.986 11.46-10.095 11.995l-44.3 3.917c-6.036.515-11.39-3.832-12.043-9.841.483.028.945-.017 1.408-.062l44.3-3.917c6.11-.535 10.621-5.872 10.096-11.995l-3.03-35.103c.053-.094.034-.168.034-.168z" clip-rule="evenodd"/>
    <path fill-rule="evenodd" stroke="#2197AE" stroke-width="3.5" d="M42.885 30.875c-4.943.458-8.618 4.778-8.168 9.732l3.19 38.075c.451 4.954 4.737 8.558 9.68 8.1l48.004-4.28c4.943-.458 8.618-4.778 8.168-9.732l-3.284-38.13c-.451-4.953-4.736-8.557-9.679-8.099l-47.911 4.334z" clip-rule="evenodd"/>
    <path fill="#2197AE" fill-rule="evenodd" d="M16.706 58.435l11.773-.95.209 2.56-11.754 1.023-.228-2.633zM109.859 50.932l11.773-.949.228 2.634-11.773.949-.228-2.634z" clip-rule="evenodd"/>
    <path fill="#fff" fill-rule="evenodd" stroke="#43A6BA" stroke-width="3" d="M34.787 49.685l1.764 19.671c-.315.006-.63.012-.872-.003-5.471-.034-9.882-4.4-9.914-9.863-.101-5.129 3.91-9.381 9.022-9.805z" clip-rule="evenodd"/>
    <path fill="#EBEBEB" fill-rule="evenodd" d="M35.834 61.618l.645 7.758c-.316.006-.61.085-.852.071-5.472-.034-9.882-4.4-9.914-9.863.034-1.358.309-2.7.79-3.862 1.485 3.487 4.993 5.954 9.11 5.956l.221-.06z" clip-rule="evenodd"/>
    <path fill-rule="evenodd" stroke="#2197AE" stroke-width="3.5" d="M34.787 49.685l1.764 19.671c-.315.006-.63.012-.872-.003-5.471-.034-9.882-4.4-9.914-9.863-.101-5.129 3.91-9.381 9.022-9.805z" clip-rule="evenodd"/>
    <path fill="#fff" stroke="#2197AE" stroke-width="3" d="M19.74 60.197c.001-2.496-2.014-4.518-4.502-4.516-2.488.002-4.506 2.026-4.508 4.522-.002 2.496 2.014 4.517 4.502 4.516 2.488-.002 4.506-2.027 4.508-4.522z"/>
    <path fill="#fff" fill-rule="evenodd" stroke="#43A6BA" stroke-width="3" d="M102.102 43.497c.389-.026.778-.05 1.093-.056 5.304 0 9.64 4.384 9.673 9.848-.027 5.243-4.019 9.57-9.097 9.825l-1.669-19.617z" clip-rule="evenodd"/>
    <path fill="#EBEBEB" fill-rule="evenodd" d="M102.786 43.392l.961 11.321c3.669-.194 6.712-2.44 8.217-5.701.577 1.272.878 2.698.884 4.203-.027 5.243-4.019 9.57-9.096 9.825l-1.69-19.691c.261.088.502.103.724.043z" clip-rule="evenodd"/>
    <path fill-rule="evenodd" stroke="#2197AE" stroke-width="3.5" d="M102.102 43.497c.389-.026.778-.05 1.093-.056 5.304 0 9.64 4.384 9.673 9.848-.027 5.243-4.019 9.57-9.097 9.825l-1.669-19.617z" clip-rule="evenodd"/>
    <path fill="#fff" stroke="#2197AE" stroke-width="3" d="M127.253 50.863c.002-2.496-2.013-4.517-4.501-4.516-2.488.002-4.507 2.026-4.508 4.522-.002 2.496 2.014 4.517 4.502 4.516 2.488-.002 4.506-2.026 4.507-4.522z"/>
    <path fill="#EBEBEB" fill-rule="evenodd" stroke="#2197AE" stroke-linecap="round" stroke-linejoin="round" stroke-width="3" d="M55.35 29.72l-.769-7.383 22.652-2.402.77 7.383c-.07 1.546-4.96 3.296-11.041 3.941-6.089.569-11.225-.041-11.611-1.539z" clip-rule="evenodd"/>
    <path fill="#fff" stroke="#2197AE" stroke-width="3" d="M54.516 21.954c.153 1.47 5.347 2.125 11.602 1.462 6.254-.663 11.2-2.392 11.046-3.861-.153-1.47-5.347-2.125-11.602-1.462-6.253.663-11.2 2.391-11.046 3.861z"/>
    <path stroke="#2197AE" stroke-linecap="round" stroke-linejoin="round" stroke-width="3" d="M49.024 43.422l8.594 7.77M57.623 42.71l-7.588 9.186M78.021 41.444l8.593 7.847M86.62 40.732l-7.588 9.185M56.825 67.259l26.962-3.56"/>
</svg>
