<svg xmlns="http://www.w3.org/2000/svg" width="24" height="24" viewBox="0 0 24 24">
    <g fill="#D2D9E1" fill-rule="evenodd">
        <path d="M21.75 15.75h-7.19l-2.78 2.78A.75.75 0 0 1 10.5 18V6c0-1.24 1.01-2.25 2.25-2.25h9C22.99 3.75 24 4.76 24 6v7.5c0 1.24-1.01 2.25-2.25 2.25zM22.5 6a.752.752 0 0 0-.75-.75h-9A.752.752 0 0 0 12 6V16.19l1.71-1.71a.748.748 0 0 1 .254-.172.739.739 0 0 1 .22-.044c.022-.002.04-.013.063-.013h7.502c.414 0 .751-.337.751-.75V6zM9 20.25a1.5 1.5 0 0 1-3 0c0-.827.673-1.5 1.5-1.5s1.5.673 1.5 1.5zM5.25 3A.75.75 0 0 1 6 2.25h3a.75.75 0 1 1 0 1.5H6A.75.75 0 0 1 5.25 3zm7.5.18v-.93A.751.751 0 0 0 12 1.5H3a.751.751 0 0 0-.75.75v19.5c0 .413.337.75.75.75h9c.413 0 .75-.337.75-.75V19.5a.75.75 0 0 1 1.5 0v2.25c0 1.24-1.01 2.25-2.25 2.25H3C1.76 24 .75 22.99.75 21.75V2.25C.75 1.01 1.76 0 3 0h9c1.24 0 2.25 1.01 2.25 2.25v.93h-1.5z"/>
        <path fill-rule="nonzero" d="M20.471 6.049l.047-.06a.686.686 0 0 1 .348-.273.845.845 0 0 1 .418-.035c.139.023.26.082.365.176a.558.558 0 0 1 .18.374.634.634 0 0 1-.047.277 3.618 3.618 0 0 1-.236.51l-.12.202a1.492 1.492 0 0 0-.023.04l-1.935 3.903c-.406.818-.818 1.634-1.236 2.449a.524.524 0 0 1-.296.257.767.767 0 0 1-.417.036.848.848 0 0 1-.383-.177.53.53 0 0 1-.192-.379.804.804 0 0 1 .11-.494c.09-.149.177-.31.262-.485l.716-1.444.192-.375.465-.93.28-.556.099-.209.356-.705 1.047-2.102z"/>
        <path d="M17.286 6.404a.62.62 0 0 1-.643.645l-1.325-.037a.62.62 0 0 0-.644.644.71.71 0 0 0 .681.68 2.127 2.127 0 0 1 2.041 2.042 1.873 1.873 0 0 1-.543 1.387 1.843 1.843 0 0 1-.73.44c-.321.07-.761.1-1.32.085a5.38 5.38 0 0 1-.662-.018.707.707 0 0 1-.68-.68.619.619 0 0 1 .643-.644l1.324.037a.62.62 0 0 0 .644-.644.698.698 0 0 0-.207-.474.698.698 0 0 0-.473-.207A2.128 2.128 0 0 1 13.35 7.62a1.85 1.85 0 0 1 1.272-1.827c.3-.07.74-.1 1.321-.086l.663.018c.365.01.67.315.68.68z"/>
    </g>
</svg>
