<svg xmlns="http://www.w3.org/2000/svg" xmlns:xlink="http://www.w3.org/1999/xlink" width="16" height="16" viewBox="0 0 16 16">
    <defs>
        <path id="a" d="M0 .037h16v15.926H0z"/>
    </defs>
    <g fill="none" fill-rule="evenodd">
        <g>
            <mask id="b" fill="#fff">
                <use xlink:href="#a"/>
            </mask>
            <path fill="#FFFC00" d="M13.45.037A2.544 2.544 0 0 1 16 2.575v10.85a2.544 2.544 0 0 1-2.55 2.538H2.55A2.544 2.544 0 0 1 0 13.425V2.575A2.544 2.544 0 0 1 2.55.037h10.9z" mask="url(#b)"/>
        </g>
        <path fill="#FFF" d="M8.059 13.476l-.09-.003a.74.74 0 0 1-.058.003c-.695 0-1.14-.314-1.571-.617-.298-.21-.579-.407-.91-.462a2.956 2.956 0 0 0-.477-.04c-.28 0-.5.043-.662.074-.098.02-.182.036-.246.036-.068 0-.14-.015-.172-.122a3.865 3.865 0 0 1-.066-.27c-.05-.225-.084-.363-.179-.378-1.101-.169-1.416-.4-1.487-.564a.21.21 0 0 1-.017-.07.124.124 0 0 1 .104-.128c1.693-.278 2.452-2 2.484-2.073l.003-.006c.103-.21.123-.39.06-.54-.116-.272-.495-.392-.746-.471-.061-.02-.12-.038-.165-.056-.5-.197-.543-.399-.523-.502.034-.175.27-.298.46-.298.052 0 .098.01.137.027.225.105.428.159.603.159.242 0 .348-.102.36-.115l-.02-.356c-.051-.797-.114-1.787.14-2.352.758-1.694 2.368-1.825 2.843-1.825l.208-.002H8.1c.477 0 2.09.131 2.85 1.826.252.566.19 1.556.14 2.353l-.003.034-.02.322c.013.012.11.105.33.114.166-.007.358-.06.568-.158a.43.43 0 0 1 .177-.034c.07 0 .143.013.203.038l.003.002c.17.06.282.178.284.302.002.117-.087.293-.526.465a2.83 2.83 0 0 1-.166.056c-.25.08-.63.199-.746.471-.063.149-.043.33.06.54.002.001.003.003.004.006.031.073.79 1.795 2.483 2.072.063.01.108.066.104.13a.206.206 0 0 1-.017.07c-.07.162-.385.393-1.487.562-.09.014-.125.13-.178.376-.02.089-.04.176-.067.268-.023.08-.073.118-.157.118h-.014c-.058 0-.141-.01-.247-.031a3.304 3.304 0 0 0-.661-.07c-.156 0-.316.013-.478.04-.33.055-.611.252-.908.461-.432.304-.878.618-1.572.618"/>
        <path fill="#030303" d="M8.1 2.401h-.03l-.206.002c-.494 0-2.168.137-2.957 1.899-.266.593-.202 1.6-.15 2.408l.017.29a.479.479 0 0 1-.233.05c-.157 0-.342-.048-.55-.146a.446.446 0 0 0-.19-.038c-.244 0-.536.16-.582.398-.033.172.045.422.599.64.05.02.11.039.174.059.229.072.575.181.669.402.048.114.03.26-.058.436l-.005.012c-.03.07-.763 1.733-2.39 2A.248.248 0 0 0 2 11.07a.331.331 0 0 0 .027.111c.122.284.637.493 1.575.637.031.043.064.192.084.282.02.09.04.182.068.28.028.096.102.21.29.21.077 0 .167-.017.27-.038.157-.03.371-.072.639-.072.148 0 .302.013.457.039.303.05.56.23.858.44.426.3.909.64 1.643.64.02 0 .04 0 .06-.002l.088.002c.734 0 1.217-.34 1.643-.64.298-.21.555-.39.857-.44.155-.026.31-.039.458-.039.255 0 .457.033.638.068.113.022.204.033.27.033h.014a.27.27 0 0 0 .276-.206c.029-.096.049-.186.069-.277.02-.09.052-.239.084-.28.937-.146 1.452-.354 1.574-.636a.328.328 0 0 0 .027-.112.247.247 0 0 0-.207-.257c-1.628-.267-2.36-1.93-2.39-2a.194.194 0 0 0-.006-.012c-.087-.175-.106-.322-.057-.436.094-.22.44-.33.669-.402.064-.02.124-.04.173-.059.406-.16.61-.355.605-.582-.003-.178-.143-.337-.364-.416a.668.668 0 0 0-.25-.048.554.554 0 0 0-.23.046c-.192.09-.366.14-.515.146a.46.46 0 0 1-.201-.05l.015-.255.002-.034c.051-.81.115-1.817-.15-2.41-.79-1.763-2.467-1.9-2.963-1.9m0 .247c.451 0 2.004.12 2.736 1.753.24.538.18 1.512.13 2.295-.008.124-.016.244-.022.36l-.003.048.033.037c.014.015.139.145.417.156h.01c.184-.007.391-.064.617-.169a.302.302 0 0 1 .124-.023c.053 0 .11.01.156.03l.007.003c.118.04.202.119.203.189 0 .04-.03.183-.448.347-.04.016-.095.033-.157.053-.273.086-.684.216-.823.541-.078.183-.057.4.064.642.05.115.827 1.86 2.577 2.146a.08.08 0 0 1-.007.028c-.03.07-.218.31-1.392.49-.183.028-.228.233-.28.471a3.607 3.607 0 0 1-.065.26c-.008.027-.01.029-.038.029h-.014c-.052 0-.131-.01-.223-.029a3.449 3.449 0 0 0-.685-.072c-.163 0-.33.014-.498.042-.36.06-.651.265-.96.483-.416.292-.845.594-1.5.594-.029 0-.057 0-.085-.002H7.96a.592.592 0 0 1-.048.002c-.655 0-1.085-.302-1.5-.594-.31-.218-.601-.423-.96-.483a3.072 3.072 0 0 0-.498-.042c-.291 0-.52.044-.686.077-.091.018-.17.033-.222.033-.043 0-.044-.002-.053-.033-.026-.089-.045-.177-.064-.262-.052-.238-.097-.444-.28-.473-1.174-.18-1.363-.42-1.393-.49a.08.08 0 0 1-.007-.028c1.75-.288 2.528-2.032 2.578-2.147.12-.243.141-.459.063-.642-.138-.325-.55-.455-.822-.541a2.53 2.53 0 0 1-.158-.053c-.353-.139-.462-.279-.446-.364.019-.098.19-.197.338-.197.034 0 .063.005.084.015.242.113.463.17.656.17.305 0 .44-.14.454-.157l.033-.037-.002-.049a37.504 37.504 0 0 0-.022-.359c-.05-.782-.111-1.756.13-2.294.729-1.626 2.274-1.752 2.73-1.752l.21-.002H8.1"/>
    </g>
</svg>
