<svg xmlns="http://www.w3.org/2000/svg" xmlns:xlink="http://www.w3.org/1999/xlink" width="16" height="16" viewBox="0 0 16 16">
    <defs>
        <path id="a" d="M0 0h16v12.945H0z"/>
    </defs>
    <g fill="none" fill-rule="evenodd" transform="translate(0 1.5)">
        <mask id="b" fill="#fff">
            <use xlink:href="#a"/>
        </mask>
        <path fill="#1DA1F2" d="M5.032 12.945c6.037 0 9.34-4.98 9.34-9.3 0-.142 0-.282-.01-.423A6.664 6.664 0 0 0 16 1.531c-.6.264-1.235.437-1.885.514A3.282 3.282 0 0 0 15.558.237c-.645.38-1.35.649-2.085.793A3.296 3.296 0 0 0 8.83.888a3.263 3.263 0 0 0-.95 3.123A9.333 9.333 0 0 1 1.114.596 3.263 3.263 0 0 0 2.13 4.96a3.27 3.27 0 0 1-1.49-.41v.042a3.273 3.273 0 0 0 2.634 3.204 3.29 3.29 0 0 1-1.483.056 3.285 3.285 0 0 0 3.067 2.27A6.605 6.605 0 0 1 0 11.477a9.323 9.323 0 0 0 5.032 1.466" mask="url(#b)"/>
    </g>
</svg>
