<svg xmlns="http://www.w3.org/2000/svg" width="32" height="32" viewBox="0 0 32 32">
    <g fill="#F5A623" fill-rule="nonzero">
        <path d="M20.13 10.421c.16-.201.389-.5 1.055-1.3-1.405-1.185-3.864-1.423-5.172-1.423-7.834 0-13.972 6.57-13.972 14.959 0 .517.023 1.033.068 1.536.069.764.439 1.27 1.2 1.204.769-.07.847-.675.778-1.44a14.501 14.501 0 0 1-.057-1.288c0-6.83 5.691-13.139 11.958-13.139 1.665 0 2.739.286 4.142.891zm5.78 4.4c1.42 2.043 2.256 4.604 2.256 7.42 0 .36-.013.72-.039 1.073-.006.08-.036.785-.043.865-.07.764.28 1.227.934 1.227.624 0 .831-.463.897-1.183.047-.514.071-1.04.071-1.566 0-3.866-1.25-7.666-3.479-9.973-.598-.62-1.102-1.01-1.241-1.164 0 0-.544 1.406-.62 1.636.194.26 1.103 1.403 1.263 1.665zM15.153 24.89c.585.298 1.977.513 2.628-.794.594-1.191 6.373-12.675 7.54-16.23.203-.508-.054-.844-.213-.934-.158-.09-.525-.176-.877.234-2.397 2.732-8.9 13.957-9.548 15.098-.672 1.183-.116 2.33.47 2.626z"/>
    </g>
</svg>
