<svg xmlns="http://www.w3.org/2000/svg" xmlns:xlink="http://www.w3.org/1999/xlink" width="16" height="16" viewBox="0 0 16 16">
    <defs>
        <path id="a" d="M.017.46c0-.25.737-.452 1.645-.452.91 0 1.646.202 1.646.452S2.57.91 1.662.91C.754.911.017.71.017.46z"/>
        <path id="c" d="M.003.465C.003.215.74.013 1.65.013c.909 0 1.645.203 1.645.452 0 .25-.736.452-1.645.452S.003.715.003.465z"/>
        <path id="e" d="M7.545.087a7.003 7.003 0 0 0-3.378 1.449C3.1 2.389 2.414 3.48 2.18 4.693c-.07.366-.1.766-.132 1.19-.123 1.652-.294 2.655-1.626 2.655a.41.41 0 0 0-.366.23.42.42 0 0 0 .04.435c1.8 2.42 4.888 2.7 7.055 2.7H7.855c1.012 0 2.08-.05 3.033-.41 1.692-.64 3.118-2.077 3.633-3.663.58-1.79.31-3.6-.76-5.1C12.571 1.064 10.526.028 8.426.028c-.294 0-.59.02-.88.06z"/>
        <path id="g" d="M.026.872c0 .473.366.856.817.856.451 0 .817-.383.817-.856C1.66.4 1.294.016.843.016.392.016.026.4.026.872z"/>
        <path id="i" d="M.022.872c0 .473.366.856.817.856.452 0 .818-.383.818-.856C1.657.4 1.29.016.839.016.39.016.022.4.022.872z"/>
        <path id="k" d="M.36.026a.425.425 0 0 0-.334.498C.252 1.71 1.484 2.618 2.851 2.618l.083-.001a3.28 3.28 0 0 0 1.876-.623c.505-.373.853-.88.98-1.426a.42.42 0 1 0-.818-.195c-.156.67-.914 1.363-2.06 1.394C1.81 1.797.983 1.061.851.363A.421.421 0 0 0 .438.018a.416.416 0 0 0-.08.008z"/>
        <path id="m" d="M8.07.073a7.585 7.585 0 0 0-3.66 1.571c-1.171.938-1.926 2.143-2.185 3.486-.077.4-.11.841-.141 1.268-.05.669-.101 1.36-.31 1.812-.144.308-.358.514-.936.514a.837.837 0 0 0-.75.471.86.86 0 0 0 .08.891c.871 1.172 2.007 1.881 3.203 2.309a1.705 1.705 0 0 0-.085.53c0 .931.744 1.686 1.662 1.686.896 0 1.624-.719 1.66-1.618.389.021 2.245.027 2.452.02.046.89.77 1.598 1.658 1.598.918 0 1.663-.755 1.663-1.686 0-.213-.04-.415-.111-.602a7.114 7.114 0 0 0 1.804-1.278c.748-.73 1.298-1.59 1.589-2.487a6.33 6.33 0 0 0 .244-3.02 6.17 6.17 0 0 0-1.08-2.586 7.007 7.007 0 0 0-2.51-2.148 7.256 7.256 0 0 0-3.29-.796c-.319 0-.64.022-.957.065zM.838 9.574c2.371 0 1.903-2.687 2.21-4.281.467-2.43 2.836-4.062 5.135-4.377.282-.04.565-.058.845-.058 3.777 0 7.14 3.421 5.839 7.434-.48 1.48-1.746 2.703-3.094 3.33a1.641 1.641 0 0 0-1.055-.384c-.645 0-1.203.374-1.479.919-.28.012-2.368.004-2.825-.027a1.659 1.659 0 0 0-1.466-.892c-.422 0-.806.161-1.1.424-1.135-.372-2.208-1.008-3.01-2.088z"/>
        <path id="o" d="M.02.578c0 .307.246.556.549.556.303 0 .548-.25.548-.556A.553.553 0 0 0 .57.02.553.553 0 0 0 .02.578z"/>
        <path id="q" d="M.004.578c0 .307.245.556.548.556.303 0 .549-.25.549-.556A.553.553 0 0 0 .552.02a.553.553 0 0 0-.548.557z"/>
    </defs>
    <g fill="none" fill-rule="evenodd">
        <g transform="translate(9.115 14.477)">
            <mask id="b" fill="#fff">
                <use xlink:href="#a"/>
            </mask>
            <path fill="#009AC5" d="M-.306 1.239H3.63V-.32H-.306z" mask="url(#b)"/>
        </g>
        <g transform="translate(3.33 14.575)">
            <mask id="d" fill="#fff">
                <use xlink:href="#c"/>
            </mask>
            <path fill="#009AC5" d="M-.32 1.245h3.937v-1.56H-.32z" mask="url(#d)"/>
        </g>
        <g transform="translate(.776 1.147)">
            <mask id="f" fill="#fff">
                <use xlink:href="#e"/>
            </mask>
            <path fill="#FFF" d="M-.31 12.23h15.453V-.3H-.309z" mask="url(#f)"/>
        </g>
        <g transform="translate(6.335 4.717)">
            <mask id="h" fill="#fff">
                <use xlink:href="#g"/>
            </mask>
            <path fill="#486067" d="M-.298 2.056h2.281V-.311h-2.28z" mask="url(#h)"/>
        </g>
        <g transform="translate(10.085 4.717)">
            <mask id="j" fill="#fff">
                <use xlink:href="#i"/>
            </mask>
            <path fill="#486067" d="M-.3 2.056h2.28V-.311H-.3z" mask="url(#j)"/>
        </g>
        <g transform="translate(6.141 7.37)">
            <mask id="l" fill="#fff">
                <use xlink:href="#k"/>
            </mask>
            <path fill="#486067" d="M-.305 2.945h6.43V-.309h-6.43z" mask="url(#l)"/>
        </g>
        <g transform="translate(0 .525)">
            <mask id="n" fill="#fff">
                <use xlink:href="#m"/>
            </mask>
            <path fill="#486067" d="M-.323 14.939h16.637V-.32H-.323z" mask="url(#n)"/>
        </g>
        <g transform="translate(10.15 12.872)">
            <mask id="p" fill="#fff">
                <use xlink:href="#o"/>
            </mask>
            <path fill="#556C73" d="M-.303 1.462H1.44V-.307H-.303z" mask="url(#p)"/>
        </g>
        <g transform="translate(4.396 12.872)">
            <mask id="r" fill="#fff">
                <use xlink:href="#q"/>
            </mask>
            <path fill="#556C73" d="M-.32 1.462h1.744V-.307H-.32z" mask="url(#r)"/>
        </g>
    </g>
</svg>
