<svg xmlns="http://www.w3.org/2000/svg" xmlns:xlink="http://www.w3.org/1999/xlink" width="16" height="16" viewBox="0 0 16 16">
    <defs>
        <linearGradient id="a" x1="50%" x2="50%" y1="100%" y2="0%">
            <stop offset="0%" stop-color="#1FAF38"/>
            <stop offset="100%" stop-color="#60D669"/>
        </linearGradient>
        <path id="b" d="M.1 7.928c0 1.393.365 2.753 1.06 3.952L.034 15.976l4.212-1.099a7.97 7.97 0 0 0 3.797.962h.004c4.378 0 7.943-3.546 7.945-7.905a7.838 7.838 0 0 0-2.325-5.593A7.915 7.915 0 0 0 8.046.023C3.666.023.102 3.57.1 7.928zm2.508 3.746l-.157-.249a6.53 6.53 0 0 1-1.01-3.497c.002-3.622 2.964-6.57 6.607-6.57 1.764.001 3.422.685 4.669 1.927a6.515 6.515 0 0 1 1.932 4.649c-.001 3.623-2.964 6.57-6.603 6.57h-.003a6.619 6.619 0 0 1-3.361-.916l-.242-.142-2.499.652.667-2.424z"/>
        <linearGradient id="c" x1="50%" x2="50%" y1="100%" y2="0%">
            <stop offset="0%" stop-color="#F9F9F9"/>
            <stop offset="100%" stop-color="#FFF"/>
        </linearGradient>
    </defs>
    <g fill="none" fill-rule="evenodd">
        <path fill="url(#a)" d="M7.734 0C3.507 0 .066 3.423.064 7.631c0 1.345.353 2.658 1.024 3.815L0 15.401l4.066-1.061a7.697 7.697 0 0 0 3.665.928h.004c4.227 0 7.668-3.423 7.67-7.631 0-2.04-.797-3.956-2.245-5.399A7.64 7.64 0 0 0 7.734 0z" transform="translate(.305 .341)"/>
        <path fill="#FFF" d="M6.022 4.585c-.15-.329-.306-.335-.447-.341-.116-.005-.248-.005-.38-.005a.73.73 0 0 0-.53.248c-.182.197-.695.675-.695 1.647 0 .973.712 1.912.81 2.044.1.132 1.374 2.19 3.392 2.982 1.677.658 2.018.527 2.382.495.364-.033 1.175-.478 1.34-.94.166-.461.166-.856.116-.94-.05-.081-.182-.13-.38-.23-.199-.098-1.175-.577-1.357-.642-.182-.066-.314-.1-.447.099-.132.197-.512.642-.628.774-.116.132-.232.148-.43.05-.199-.1-.838-.308-1.597-.981a5.955 5.955 0 0 1-1.104-1.368c-.116-.198-.013-.305.087-.403.09-.089.199-.231.298-.346.099-.116.132-.198.198-.33s.033-.247-.016-.346c-.05-.099-.436-1.076-.612-1.467"/>
        <g>
            <mask id="d" fill="#fff">
                <use xlink:href="#b"/>
            </mask>
            <path fill="url(#c)" d="M.1 7.928c0 1.393.365 2.753 1.06 3.952L.034 15.976l4.212-1.099a7.97 7.97 0 0 0 3.797.962h.004c4.378 0 7.943-3.546 7.945-7.905a7.838 7.838 0 0 0-2.325-5.593A7.915 7.915 0 0 0 8.046.023C3.666.023.102 3.57.1 7.928zm2.508 3.746l-.157-.249a6.53 6.53 0 0 1-1.01-3.497c.002-3.622 2.964-6.57 6.607-6.57 1.764.001 3.422.685 4.669 1.927a6.515 6.515 0 0 1 1.932 4.649c-.001 3.623-2.964 6.57-6.603 6.57h-.003a6.619 6.619 0 0 1-3.361-.916l-.242-.142-2.499.652.667-2.424z" mask="url(#d)"/>
        </g>
    </g>
</svg>
