<svg width="24" height="24" viewBox="0 0 24 24" fill="none" xmlns="http://www.w3.org/2000/svg">
<path fill-rule="evenodd" clip-rule="evenodd" d="M13.5531 11.3828L19.5574 5.52491L17.9787 3.98584L11.976 9.84215L13.5531 11.3828Z" fill="#595959"/>
<path fill-rule="evenodd" clip-rule="evenodd" d="M7.12189 9.04863H9.34547V2.76904H7.12189V9.04863Z" fill="#595959"/>
<path fill-rule="evenodd" clip-rule="evenodd" d="M14.6548 15.9802H21.2308V13.8101H14.6548V15.9802Z" fill="#595959"/>
<path fill-rule="evenodd" clip-rule="evenodd" d="M11.616 12.5038C10.5878 11.5011 9.34466 11.0093 7.93378 11.0093C6.52321 11.0093 5.30281 11.5011 4.29994 12.5038C3.26986 13.5083 2.76923 14.7196 2.76923 16.1202C2.76923 17.5209 3.26986 18.7333 4.29994 19.7143C5.30281 20.7186 6.52321 21.2306 7.93378 21.2306C9.34466 21.2306 10.5878 20.7186 11.616 19.7143C12.6203 18.7333 13.1225 17.5209 13.1225 16.1202C13.1225 14.7196 12.6203 13.5083 11.616 12.5038M9.8701 18.0113C9.34463 18.5496 8.69918 18.8035 7.93375 18.8035C7.19297 18.8035 6.54689 18.5496 6.02206 18.0113C5.49485 17.4742 5.20745 16.8437 5.20745 16.1201C5.20745 15.3511 5.49485 14.7196 6.02206 14.2068C6.54689 13.6712 7.19297 13.4135 7.93375 13.4374C8.69918 13.4135 9.34463 13.6712 9.89317 14.2068C10.3964 14.7196 10.6592 15.3511 10.6842 16.1201C10.6592 16.8437 10.3964 17.4742 9.8701 18.0113" fill="#595959"/>
</svg>
