<svg xmlns="http://www.w3.org/2000/svg" width="24" height="24" fill="none" viewBox="0 0 24 24">
    <path fill="#595959" fill-rule="evenodd" d="M21.75 15.75h-7.19l-2.78 2.78c-.143.143-.335.22-.53.22-.097 0-.194-.019-.287-.058-.28-.115-.463-.389-.463-.692V6c0-1.24 1.01-2.25 2.25-2.25h9C22.99 3.75 24 4.76 24 6v7.5c0 1.24-1.01 2.25-2.25 2.25zM22.5 6c0-.413-.337-.75-.75-.75h-9c-.413 0-.75.337-.75.75V16.19l1.71-1.71c.072-.074.157-.132.254-.172.07-.03.146-.037.22-.044.022-.002.04-.013.063-.013h7.502c.414 0 .751-.337.751-.75V6zM9 20.25c0 .827-.673 1.5-1.5 1.5S6 21.076 6 20.25s.673-1.5 1.5-1.5 1.5.673 1.5 1.5zM5.25 3c0-.415.336-.75.75-.75h3c.414 0 .75.335.75.75 0 .414-.336.75-.75.75H6c-.414 0-.75-.336-.75-.75zm7.5.18v-.93c0-.413-.337-.75-.75-.75H3c-.413 0-.75.337-.75.75v19.5c0 .413.337.75.75.75h9c.413 0 .75-.337.75-.75V19.5c0-.414.336-.75.75-.75s.75.336.75.75v2.25c0 1.24-1.01 2.25-2.25 2.25H3C1.76 24 .75 22.99.75 21.75V2.25C.75 1.01 1.76 0 3 0h9c1.24 0 2.25 1.01 2.25 2.25v.93h-1.5z" clip-rule="evenodd"/>
    <path fill="#595959" d="M20.471 6.049l.047-.06c.093-.135.209-.226.348-.273.14-.047.278-.06.418-.036.139.024.26.083.365.177.104.094.164.219.18.374.008.08-.008.173-.047.277-.038.105-.083.21-.133.313-.034.07-.068.136-.103.198l-.12.201-.023.04-1.935 3.903c-.406.818-.818 1.634-1.236 2.449-.062.121-.16.207-.296.257-.135.05-.274.063-.417.036-.143-.027-.271-.086-.383-.177-.112-.09-.176-.217-.192-.379-.015-.181.022-.346.11-.495.09-.147.177-.31.262-.484l.716-1.444.192-.375.465-.93.28-.556.099-.209.356-.705 1.047-2.102z"/>
    <path fill="#595959" fill-rule="evenodd" d="M17.286 6.404c.01.367-.278.655-.643.645l-1.325-.037c-.366-.01-.654.278-.644.644.01.365.316.67.681.68 1.095.031 2.011.947 2.041 2.041.015.548-.194 1.038-.543 1.388-.201.201-.452.348-.73.44 0 0-.482.106-1.32.085-.333.011-.662-.018-.662-.018-.366-.01-.67-.315-.68-.68-.01-.366.278-.655.643-.644l1.324.037c.366.01.654-.278.644-.644-.005-.177-.078-.345-.207-.474-.128-.128-.297-.201-.473-.207-1.096-.03-2.011-.946-2.042-2.041-.024-.862.51-1.574 1.272-1.827.45-.106 1.321-.086 1.321-.086l.663.018c.365.01.67.315.68.68z" clip-rule="evenodd"/>
</svg>
