<svg xmlns="http://www.w3.org/2000/svg" width="24" height="24" fill="none" viewBox="0 0 24 24">
    <path fill="#595959" fill-rule="evenodd" d="M19.5 5.328L15.671 1.5H6.75c-1.657 0-3 1.343-3 3v15c0 1.657 1.343 3 3 3h9.75c1.657 0 3-1.343 3-3V5.328zM6.75 3h8.3L18 5.95V19.5c0 .828-.672 1.5-1.5 1.5H6.75c-.828 0-1.5-.672-1.5-1.5v-15c0-.828.672-1.5 1.5-1.5z" clip-rule="evenodd"/>
    <path fill="#595959" d="M7.5 7.5h3.75V6H7.5v1.5zM7.5 11.25h8.25v-1.5H7.5v1.5zM7.5 15h8.25v-1.5H7.5V15zM7.5 18.75h8.25v-1.5H7.5v1.5zM15.75 5.25v-3h-1.5v4.5h4.291v-1.5H15.75z"/>
</svg>
